# xmcd CD database file
#
# Track frame offsets:
#	150
#	8929
#	26245
#	40756
#	53658
#	68076
#	81897
#	94805
#	104181
#	114615
#	130762
#	142779
#	151979
#	164137
#	178737
#	190730
#	200649
#	212870
#	226867
#	236748
#	252443
#	268864
#	281610
#	291921
#	304653
#
# Disc length: 4188 seconds
#
# Revision: 0
# Processed by: cddbd v1.5.2PL0 Copyright (c) Steve Scherf et al.
# Submitted via: CDex 2.20
#
DISCID=76105a19
DTITLE=Trampske - Porta1_1967-1968
DYEAR=1968
DGENRE=Country
TTITLE0=Rodeo_Greenhorns
TTITLE1=ZatracenejZivot_Greenhorns
TTITLE2=DalkaVola_Rangers
TTITLE3=WhisperingPines_M-Tucny-Rangers
TTITLE4=STouMalouLulabay_CaravellWestern
TTITLE5=SomTakSam_CaravellWestern
TTITLE6=SrdceZlatehoZapadu_CaravellWestern
TTITLE7=ProdamLaso_Greenes
TTITLE8=ZejtraRano_Greenhorns
TTITLE9=CowboyZCherokee_Cervanek
TTITLE10=KacakHuciJakMississippi_Cervanek
TTITLE11=HejnoVran_Hoboes
TTITLE12=PosledniMile_Hoboes
TTITLE13=CottonFields_Rangers
TTITLE14=ZvedneteKotvy_Rangers
TTITLE15=ItAllDependsOnLinda_M-Tucny-Rivals
TTITLE16=OneBridgeAtATime_M-Tucny-Rivals
TTITLE17=JenSiHrej_WhiteStars
TTITLE18=Lokalka_WhiteStars
TTITLE19=DoneyGal_SpiritualKvintet
TTITLE20=GiveMeThatOldTImeReligion_SpiritualKvintet
TTITLE21=ZelenePlane_Stopa
TTITLE22=Karolina_BootHill
TTITLE23=CigaretyAWhisky_Tennessee
TTITLE24=NadHlavouVlajkaHvezdnata_Tennessee
EXTD=YEAR: 1968
EXTT0=
EXTT1=
EXTT2=
EXTT3=
EXTT4=
EXTT5=
EXTT6=
EXTT7=
EXTT8=
EXTT9=
EXTT10=
EXTT11=
EXTT12=
EXTT13=
EXTT14=
EXTT15=
EXTT16=
EXTT17=
EXTT18=
EXTT19=
EXTT20=
EXTT21=
EXTT22=
EXTT23=
EXTT24=
PLAYORDER=
